<svg id="Layer_1" data-name="Layer 1" xmlns="http://www.w3.org/2000/svg" width="1920" height="1080" viewBox="0 0 1920 1080"><defs><style>.cls-1{opacity:0.83;}.cls-2{fill:#bf0303;}.cls-3,.cls-4{fill:#131626;}.cls-3{stroke:#f29a2e;stroke-miterlimit:10;stroke-width:2px;}</style></defs><title>Artboard 1</title><g class="cls-1"><path class="cls-2" d="M168.35,408.44v-99h43.7c15.84,0,29.3,13.6,29.3,29.44A29,29,0,0,1,235,356.7a28.89,28.89,0,0,1-17.82,51.74Zm38.55-60.32a8.58,8.58,0,0,0,0-17.16H194.36v17.16Zm4.88,38.94a8.57,8.57,0,0,0,8.58-8.58,8.74,8.74,0,0,0-8.58-8.58H194.36v17.16Z"/><path class="cls-2" d="M255.21,408.44l46.2-99h11.75l46.59,99h-26l-6.07-12.93H287.15l-5.94,12.93Zm42.11-34.85h20.19l-10-21.78Z"/><path class="cls-2" d="M373,408.44v-99h43.69c15.84,0,29.31,13.6,29.31,29.44a29,29,0,0,1-6.34,17.82,28.89,28.89,0,0,1-17.82,51.74Zm38.55-60.32a8.58,8.58,0,0,0,0-17.16H399v17.16Zm4.88,38.94a8.57,8.57,0,0,0,8.58-8.58,8.74,8.74,0,0,0-8.58-8.58H399v17.16Z"/><path class="cls-2" d="M492.41,369a12.94,12.94,0,1,0,25.87,0V309.44h26.14v59.93a39.08,39.08,0,0,1-78.15,0V309.44h26.14Z"/><path class="cls-2" d="M600.65,339.8a7.6,7.6,0,0,0-7.52-7.52,7.49,7.49,0,0,0-7.4,7.52,7.38,7.38,0,0,0,7.4,7.39,30.63,30.63,0,1,1-30.5,30.5h23.1a7.41,7.41,0,0,0,7.4,7.52,7.49,7.49,0,0,0,7.52-7.39,7.61,7.61,0,0,0-7.52-7.53,30.43,30.43,0,1,1,30.49-30.49Z"/><path class="cls-2" d="M668.1,309.44v35.25h31.42V309.44h26v99h-26V370.69H668.1v37.75h-26v-99Z"/><path class="cls-2" d="M841.15,309.44,796,354.72l53.59,53.72H812.91l-35.25-35.11-6.2,6.34v28.77h-26v-99h26v33.4l33.26-33.4Z"/><path class="cls-2" d="M852.11,408.44l46.2-99h11.75l46.59,99h-26l-6.07-12.93H884.05l-5.94,12.93Zm42.1-34.85h20.2l-10-21.78Z"/></g><path class="cls-3" d="M177.36,408.33v-99h43.7c15.84,0,29.3,13.6,29.3,29.44A29.06,29.06,0,0,1,244,356.59a28.89,28.89,0,0,1-17.82,51.74ZM215.91,348a8.58,8.58,0,1,0,0-17.16H203.37V348ZM220.79,387a8.56,8.56,0,0,0,8.58-8.58,8.74,8.74,0,0,0-8.58-8.58H203.37V387Z"/><path class="cls-3" d="M264.22,408.33l46.2-99h11.75l46.6,99h-26l-6.07-12.93H296.16l-5.94,12.93Zm42.11-34.85h20.19l-10-21.78Z"/><path class="cls-3" d="M382,408.33v-99h43.7c15.84,0,29.3,13.6,29.3,29.44a29,29,0,0,1-6.34,17.82,28.88,28.88,0,0,1-17.82,51.74ZM420.51,348a8.58,8.58,0,0,0,0-17.16H408V348ZM425.39,387a8.57,8.57,0,0,0,8.58-8.58,8.74,8.74,0,0,0-8.58-8.58H408V387Z"/><path class="cls-3" d="M501.42,368.86a12.94,12.94,0,1,0,25.88,0V309.33h26.13v59.93a39.07,39.07,0,1,1-78.14,0V309.33h26.13Z"/><path class="cls-3" d="M609.66,339.69a7.6,7.6,0,0,0-7.52-7.52,7.49,7.49,0,0,0-7.39,7.52,7.38,7.38,0,0,0,7.39,7.39,30.63,30.63,0,1,1-30.49,30.5h23.1a7.41,7.41,0,0,0,7.39,7.52,7.49,7.49,0,0,0,7.52-7.39,7.61,7.61,0,0,0-7.52-7.53,30.43,30.43,0,1,1,30.49-30.49Z"/><path class="cls-3" d="M677.11,309.33v35.25h31.42V309.33h26v99h-26V370.58H677.11v37.75h-26v-99Z"/><path class="cls-3" d="M850.17,309.33,805,354.61l53.59,53.72H821.92l-35.25-35.11-6.2,6.34v28.77h-26v-99h26v33.4l33.26-33.4Z"/><path class="cls-3" d="M861.12,408.33l46.2-99h11.75l46.59,99h-26l-6.07-12.93H893.06l-5.94,12.93Zm42.11-34.85h20.19l-10-21.78Z"/><path class="cls-4" d="M444.9,294V249h19.86a13.58,13.58,0,0,1,13.32,13.38,13.18,13.18,0,0,1-2.88,8.1A13.13,13.13,0,0,1,467.1,294Zm17.52-27.42a3.9,3.9,0,0,0,0-7.8h-5.7v7.8Zm2.22,17.7a3.89,3.89,0,0,0,3.9-3.9,4,4,0,0,0-3.9-3.9h-7.92v7.8Z"/><path class="cls-4" d="M487.32,249h11.82v45H487.32Z"/><path class="cls-4" d="M524.76,262.8a3.46,3.46,0,0,0-3.42-3.42A3.41,3.41,0,0,0,518,262.8a3.35,3.35,0,0,0,3.36,3.36A13.92,13.92,0,1,1,507.48,280H518a3.37,3.37,0,0,0,3.36,3.42,3.41,3.41,0,0,0,3.42-3.36,3.46,3.46,0,0,0-3.42-3.42A13.83,13.83,0,1,1,535.2,262.8Z"/><path class="cls-4" d="M542.64,248.94H578.1V260.7H566.16V294H554.34V260.7h-11.7Z"/><path class="cls-4" d="M612.36,294l-7-11.94h-7.32V294H586.26V249h19a16.52,16.52,0,0,1,11.22,28.68L626,294Zm-14.28-22.14h7.32a6.45,6.45,0,1,0,0-12.9h-7.32Z"/><path class="cls-4" d="M652.14,249a22.5,22.5,0,1,1-22.44,22.56A22.56,22.56,0,0,1,652.14,249Zm0,11.76a10.74,10.74,0,1,0,10.74,10.74A10.72,10.72,0,0,0,652.14,260.76Z"/><line class="cls-3" x1="224" y1="275" x2="414" y2="275"/><line class="cls-3" x1="702" y1="276" x2="883" y2="276"/><line class="cls-3" x1="167" y1="438" x2="976" y2="438"/></svg>