<svg id="Layer_1" data-name="Layer 1" xmlns="http://www.w3.org/2000/svg" width="332" height="91" viewBox="0 0 332 91"><defs><style>.cls-1{opacity:0.8;}.cls-2{fill:#bf0303;}.cls-3,.cls-5{fill:#131626;}.cls-4{fill:none;}.cls-4,.cls-5{stroke:red;stroke-miterlimit:10;stroke-width:2px;}</style></defs><title>bistro_blue</title><g class="cls-1"><path class="cls-2" d="M4.39,77.71V33.81H22.13c6.43,0,11.9,6,11.9,13a13.61,13.61,0,0,1-2.57,7.9A13.55,13.55,0,0,1,36,64.83c0,7-5.41,12.88-11.79,12.88ZM20,51a3.82,3.82,0,0,0,0-7.61H15V51Zm2,17.27a3.66,3.66,0,0,0,3.49-3.81A3.71,3.71,0,0,0,22,60.62H15v7.61Z"/><path class="cls-2" d="M39.66,77.71l18.75-43.9h4.77L82.1,77.71H71.54L69.08,72H52.63l-2.42,5.74ZM56.75,62.26H65L60.88,52.6Z"/><path class="cls-2" d="M87.46,77.71V33.81H105.2c6.43,0,11.9,6,11.9,13a13.61,13.61,0,0,1-2.57,7.9,13.55,13.55,0,0,1,4.55,10.07c0,7-5.41,12.88-11.79,12.88ZM103.11,51a3.82,3.82,0,0,0,0-7.61H98V51Zm2,17.27a3.66,3.66,0,0,0,3.49-3.81,3.71,3.71,0,0,0-3.49-3.8H98v7.61Z"/><path class="cls-2" d="M136,60.21a5.27,5.27,0,1,0,10.5,0V33.81h10.61V60.38c0,9.66-7.13,17.33-15.86,17.33S125.35,70,125.35,60.38V33.81H136Z"/><path class="cls-2" d="M179.91,47.27a3.23,3.23,0,0,0-3-3.33,3.19,3.19,0,0,0-3,3.33,3.14,3.14,0,0,0,3,3.28,12,12,0,0,1,9.7,5.21,14.28,14.28,0,0,1,2.68,8.49c0,7.49-5.52,13.46-12.38,13.46s-12.38-5.91-12.38-13.64h9.38a3,3,0,1,0,6,.06,3.24,3.24,0,0,0-3-3.34c-6.86,0-12.33-6-12.33-13.46S170,33.81,176.86,33.81s12.38,6,12.38,13.46Z"/><path class="cls-2" d="M207.3,33.81V49.44h12.75V33.81h10.56v43.9H220.05V61H207.3V77.71H196.74V33.81Z"/><path class="cls-2" d="M277.56,33.81,259.23,53.89,281,77.71h-14.9L251.78,62.14,249.26,65V77.71H238.71V33.81h10.55V48.62l13.51-14.81Z"/><path class="cls-2" d="M282,77.71l18.76-43.9h4.77l18.91,43.9H313.9L311.43,72H295l-2.41,5.74Zm17.1-15.45h8.19l-4.07-9.66Z"/></g><path class="cls-3" d="M8.46,77.66V33.76H26.2c6.43,0,11.89,6,11.89,13.05a13.66,13.66,0,0,1-2.57,7.91,13.54,13.54,0,0,1,4.56,10.06c0,7-5.42,12.88-11.79,12.88ZM24.11,50.91a3.82,3.82,0,0,0,0-7.61H19v7.61Zm2,17.27a3.65,3.65,0,0,0,3.48-3.81,3.72,3.72,0,0,0-3.48-3.8H19v7.61Z"/><path class="cls-3" d="M43.72,77.66l18.76-43.9h4.77l18.92,43.9H75.61l-2.47-5.74H56.69l-2.41,5.74Zm17.1-15.45H69l-4.08-9.66Z"/><path class="cls-3" d="M91.53,77.66V33.76h17.74c6.43,0,11.89,6,11.89,13.05a13.59,13.59,0,0,1-2.57,7.91,13.54,13.54,0,0,1,4.56,10.06c0,7-5.42,12.88-11.79,12.88Zm15.65-26.75a3.82,3.82,0,0,0,0-7.61h-5.09v7.61Zm2,17.27a3.65,3.65,0,0,0,3.48-3.81,3.72,3.72,0,0,0-3.48-3.8h-7.07v7.61Z"/><path class="cls-3" d="M140,60.16a5.27,5.27,0,1,0,10.5,0V33.76h10.61V60.33c0,9.66-7.12,17.33-15.86,17.33S129.42,70,129.42,60.33V33.76H140Z"/><path class="cls-3" d="M184,47.22a3.24,3.24,0,0,0-3.06-3.33,3.19,3.19,0,0,0-3,3.33,3.14,3.14,0,0,0,3,3.28,12,12,0,0,1,9.7,5.21,14.22,14.22,0,0,1,2.68,8.49c0,7.49-5.52,13.46-12.38,13.46S168.54,71.75,168.54,64h9.38a3,3,0,1,0,6.06.06,3.25,3.25,0,0,0-3.06-3.34c-6.86,0-12.32-6-12.32-13.46s5.46-13.52,12.32-13.52,12.38,6,12.38,13.46Z"/><path class="cls-3" d="M211.36,33.76V49.39h12.76V33.76h10.56v43.9H224.12V60.92H211.36V77.66H200.81V33.76Z"/><path class="cls-3" d="M281.62,33.76,263.3,53.84l21.75,23.82H270.16L255.85,62.09l-2.52,2.81V77.66H242.77V33.76h10.56V48.57l13.5-14.81Z"/><path class="cls-3" d="M286.08,77.66l18.75-43.9h4.77l18.92,43.9H318l-2.46-5.74H299l-2.41,5.74Zm17.09-15.45h8.2l-4.07-9.66Z"/><path class="cls-3" d="M116.68,27V7h8.07c2.92,0,5.41,2.74,5.41,5.93A6.21,6.21,0,0,1,129,16.52a6.18,6.18,0,0,1,2.07,4.58A5.71,5.71,0,0,1,125.7,27Zm7.11-12.17a1.66,1.66,0,0,0,1.59-1.73,1.67,1.67,0,0,0-1.59-1.73h-2.31v3.46Zm.91,7.86a1.67,1.67,0,0,0,1.58-1.73,1.69,1.69,0,0,0-1.58-1.73h-3.22v3.46Z"/><path class="cls-3" d="M133.9,7h4.8V27h-4.8Z"/><path class="cls-3" d="M149.11,13.12a1.48,1.48,0,0,0-1.39-1.52,1.45,1.45,0,0,0-1.37,1.52,1.43,1.43,0,0,0,1.37,1.49A5.45,5.45,0,0,1,152.13,17a6.46,6.46,0,0,1,1.22,3.86A5.87,5.87,0,0,1,147.72,27c-3.12,0-5.63-2.69-5.63-6.2h4.26a1.43,1.43,0,0,0,1.37,1.51,1.45,1.45,0,0,0,1.39-1.49,1.47,1.47,0,0,0-1.39-1.51,5.86,5.86,0,0,1-5.61-6.13,5.64,5.64,0,1,1,11.24,0Z"/><path class="cls-3" d="M156.36,7h14.41v5.22h-4.85V27h-4.8V12.19h-4.76Z"/><path class="cls-3" d="M184.67,27l-2.82-5.3h-3V27h-4.8V7h7.7c3.71,0,6.73,3.3,6.73,7.34a7.64,7.64,0,0,1-2.17,5.38L190.21,27Zm-5.8-9.82h3a2.73,2.73,0,0,0,2.63-2.85,2.74,2.74,0,0,0-2.63-2.87h-3Z"/><path class="cls-3" d="M200.83,7c5,0,9.13,4.5,9.13,10s-4.09,10-9.13,10-9.12-4.45-9.12-10S195.78,7,200.83,7Zm0,5.21A4.57,4.57,0,0,0,196.49,17a4.37,4.37,0,1,0,8.7,0A4.57,4.57,0,0,0,200.83,12.21Z"/><line class="cls-4" x1="26.99" y1="18.53" x2="104.13" y2="18.53"/><line class="cls-5" x1="221.07" y1="18.97" x2="294.55" y2="18.97"/><line class="cls-4" x1="23.57" y1="85.09" x2="290.8" y2="85"/></svg>
