<svg id="Layer_1" data-name="Layer 1" xmlns="http://www.w3.org/2000/svg" width="882" height="233" viewBox="0 0 882 233"><defs><style>.cls-1{opacity:0.83;}.cls-2{fill:#bf0303;}.cls-3,.cls-4{fill:#131626;}.cls-3{stroke:#f29a2e;stroke-miterlimit:10;stroke-width:2px;}</style></defs><title>bistro</title><g class="cls-1"><path class="cls-2" d="M33.35,175.44v-99h43.7c15.84,0,29.3,13.6,29.3,29.44A29,29,0,0,1,100,123.7a28.89,28.89,0,0,1-17.82,51.74ZM71.9,115.12A8.58,8.58,0,0,0,71.9,98H59.36v17.16Zm4.88,38.94a8.57,8.57,0,0,0,8.58-8.58,8.74,8.74,0,0,0-8.58-8.58H59.36v17.16Z"/><path class="cls-2" d="M120.21,175.44l46.2-99h11.75l46.59,99h-26l-6.07-12.93H152.15l-5.94,12.93Zm42.11-34.85h20.19l-10-21.78Z"/><path class="cls-2" d="M238,175.44v-99h43.69C297.48,76.44,311,90,311,105.88a29,29,0,0,1-6.34,17.82,28.89,28.89,0,0,1-17.82,51.74Zm38.55-60.32a8.58,8.58,0,0,0,0-17.16H264v17.16Zm4.88,38.94a8.57,8.57,0,0,0,8.58-8.58,8.74,8.74,0,0,0-8.58-8.58H264v17.16Z"/><path class="cls-2" d="M357.41,136a12.94,12.94,0,1,0,25.87,0V76.44h26.14v59.93a39.08,39.08,0,0,1-78.15,0V76.44h26.14Z"/><path class="cls-2" d="M465.65,106.8a7.6,7.6,0,0,0-7.52-7.52,7.49,7.49,0,0,0-7.4,7.52,7.38,7.38,0,0,0,7.4,7.39,30.63,30.63,0,1,1-30.5,30.5h23.1a7.41,7.41,0,0,0,7.4,7.52,7.49,7.49,0,0,0,7.52-7.39,7.61,7.61,0,0,0-7.52-7.53,30.43,30.43,0,1,1,30.49-30.49Z"/><path class="cls-2" d="M533.1,76.44v35.25h31.42V76.44h26v99h-26V137.69H533.1v37.75h-26v-99Z"/><path class="cls-2" d="M706.15,76.44,661,121.72l53.59,53.72H677.91l-35.25-35.11-6.2,6.34v28.77h-26v-99h26v33.4l33.26-33.4Z"/><path class="cls-2" d="M717.11,175.44l46.2-99h11.75l46.59,99h-26l-6.07-12.93H749.05l-5.94,12.93Zm42.1-34.85h20.2l-10-21.78Z"/></g><path class="cls-3" d="M42.36,175.33v-99h43.7c15.84,0,29.3,13.6,29.3,29.44A29.06,29.06,0,0,1,109,123.59a28.89,28.89,0,0,1-17.82,51.74ZM80.91,115a8.58,8.58,0,0,0,0-17.16H68.37V115ZM85.79,154a8.56,8.56,0,0,0,8.58-8.58,8.74,8.74,0,0,0-8.58-8.58H68.37V154Z"/><path class="cls-3" d="M129.22,175.33l46.2-99h11.75l46.6,99h-26l-6.07-12.93H161.16l-5.94,12.93Zm42.11-34.85h20.19l-10-21.78Z"/><path class="cls-3" d="M247,175.33v-99h43.7c15.84,0,29.3,13.6,29.3,29.44a29,29,0,0,1-6.34,17.82,28.88,28.88,0,0,1-17.82,51.74ZM285.51,115a8.58,8.58,0,0,0,0-17.16H273V115ZM290.39,154a8.57,8.57,0,0,0,8.58-8.58,8.74,8.74,0,0,0-8.58-8.58H273V154Z"/><path class="cls-3" d="M366.42,135.86a12.94,12.94,0,0,0,25.88,0V76.33h26.13v59.93a39.07,39.07,0,1,1-78.14,0V76.33h26.13Z"/><path class="cls-3" d="M474.66,106.69a7.6,7.6,0,0,0-7.52-7.52,7.49,7.49,0,0,0-7.39,7.52,7.38,7.38,0,0,0,7.39,7.39,30.63,30.63,0,1,1-30.49,30.5h23.1a7.41,7.41,0,0,0,7.39,7.52,7.49,7.49,0,0,0,7.52-7.39,7.61,7.61,0,0,0-7.52-7.53,30.43,30.43,0,1,1,30.49-30.49Z"/><path class="cls-3" d="M542.11,76.33v35.25h31.42V76.33h26v99h-26V137.58H542.11v37.75h-26v-99Z"/><path class="cls-3" d="M715.17,76.33,670,121.61l53.59,53.72H686.92l-35.25-35.11-6.2,6.34v28.77h-26v-99h26v33.4l33.26-33.4Z"/><path class="cls-3" d="M726.12,175.33l46.2-99h11.75l46.59,99h-26l-6.07-12.93H758.06l-5.94,12.93Zm42.11-34.85h20.19l-10-21.78Z"/><path class="cls-4" d="M309.9,61V16h19.86a13.58,13.58,0,0,1,13.32,13.38,13.18,13.18,0,0,1-2.88,8.1A13.13,13.13,0,0,1,332.1,61Zm17.52-27.42a3.9,3.9,0,0,0,0-7.8h-5.7v7.8Zm2.22,17.7a3.89,3.89,0,0,0,3.9-3.9,4,4,0,0,0-3.9-3.9h-7.92v7.8Z"/><path class="cls-4" d="M352.32,16h11.82V61H352.32Z"/><path class="cls-4" d="M389.76,29.8a3.46,3.46,0,0,0-3.42-3.42A3.41,3.41,0,0,0,383,29.8a3.35,3.35,0,0,0,3.36,3.36A13.92,13.92,0,1,1,372.48,47H383a3.37,3.37,0,0,0,3.36,3.42,3.41,3.41,0,0,0,3.42-3.36,3.46,3.46,0,0,0-3.42-3.42A13.83,13.83,0,1,1,400.2,29.8Z"/><path class="cls-4" d="M407.64,15.94H443.1V27.7H431.16V61H419.34V27.7h-11.7Z"/><path class="cls-4" d="M477.36,61l-7-11.94h-7.32V61H451.26V16h19a16.52,16.52,0,0,1,11.22,28.68L491,61ZM463.08,38.86h7.32a6.45,6.45,0,1,0,0-12.9h-7.32Z"/><path class="cls-4" d="M517.14,16A22.5,22.5,0,1,1,494.7,38.56,22.56,22.56,0,0,1,517.14,16Zm0,11.76A10.74,10.74,0,1,0,527.88,38.5,10.72,10.72,0,0,0,517.14,27.76Z"/><line class="cls-3" x1="89" y1="42" x2="279" y2="42"/><line class="cls-3" x1="567" y1="43" x2="748" y2="43"/><line class="cls-3" x1="32" y1="205" x2="841" y2="205"/></svg>
