<svg id="Layer_1" data-name="Layer 1" xmlns="http://www.w3.org/2000/svg" width="218" height="95" viewBox="0 0 218 95"><defs><style>.cls-1{fill:#bf0303;}.cls-2{fill:#131626;stroke:red;stroke-miterlimit:10;stroke-width:2px;}</style></defs><title>bistro_red</title><path class="cls-1" d="M11.48,46.61V13.43H27.8c5.92,0,11,4.56,11,9.87a9.14,9.14,0,0,1-2.37,6,9.58,9.58,0,0,1,4.19,7.61c0,5.26-5,9.73-10.85,9.73Zm14.4-20.22a3,3,0,0,0,3.21-2.87,3.05,3.05,0,0,0-3.21-2.88H21.19v5.75Zm1.83,13a3,3,0,0,0,3.2-2.87,3.12,3.12,0,0,0-3.2-2.88H21.19v5.75Z"/><path class="cls-1" d="M49.32,13.43H59V46.61H49.32Z"/><path class="cls-1" d="M83.06,23.61a2.71,2.71,0,0,0-2.81-2.52,2.66,2.66,0,0,0-2.76,2.52,2.62,2.62,0,0,0,2.76,2.47A11.84,11.84,0,0,1,89.18,30a9.51,9.51,0,0,1,2.46,6.42c0,5.66-5.08,10.17-11.39,10.17s-11.4-4.47-11.4-10.31h8.64a2.63,2.63,0,0,0,2.76,2.53,2.67,2.67,0,0,0,2.81-2.48,2.71,2.71,0,0,0-2.81-2.52c-6.32,0-11.35-4.52-11.35-10.18s5-10.22,11.35-10.22S91.64,18,91.64,23.61Z"/><path class="cls-1" d="M100.73,13.39h29.15v8.67h-9.82V46.61h-9.71V22.06h-9.62Z"/><path class="cls-1" d="M161,46.61l-5.72-8.8h-6v8.8h-9.72V13.43h15.59c7.5,0,13.62,5.49,13.62,12.21a11.68,11.68,0,0,1-4.39,8.94l7.84,12ZM149.27,30.29h6c3,0,5.33-2.08,5.33-4.74a5.05,5.05,0,0,0-5.33-4.77h-6Z"/><path class="cls-1" d="M196.68,13.43c10.22,0,18.5,7.48,18.5,16.64s-8.28,16.54-18.5,16.54-18.45-7.39-18.45-16.54S186.47,13.43,196.68,13.43Zm0,8.67c-4.83,0-8.78,3.54-8.78,7.92s3.95,7.92,8.78,7.92,8.83-3.58,8.83-7.92S201.57,22.1,196.68,22.1Z"/><path class="cls-1" d="M10.21,81.81v-22H21c3.93,0,7.26,3,7.26,6.54a6,6,0,0,1-1.57,4,6.35,6.35,0,0,1,2.78,5c0,3.49-3.3,6.45-7.19,6.45Zm9.56-13.4a1.92,1.92,0,1,0,0-3.81H16.66v3.81ZM21,77.06a2,2,0,0,0,2.12-1.91A2.06,2.06,0,0,0,21,73.25H16.66v3.81Z"/><path class="cls-1" d="M32.92,81.81l11.45-22h2.91l11.55,22H52.38l-1.5-2.87h-10l-1.48,2.87Zm10.44-7.74h5l-2.49-4.84Z"/><path class="cls-1" d="M63.28,81.81v-22H74.11c3.93,0,7.26,3,7.26,6.54a6,6,0,0,1-1.57,4,6.35,6.35,0,0,1,2.78,5c0,3.49-3.3,6.45-7.19,6.45Zm9.55-13.4a1.92,1.92,0,1,0,0-3.81h-3.1v3.81Zm1.22,8.65a2,2,0,0,0,2.12-1.91,2.06,2.06,0,0,0-2.12-1.9H69.73v3.81Z"/><path class="cls-1" d="M94.07,73a3.22,3.22,0,0,0,6.41,0V59.82H107V73.13c0,4.84-4.35,8.68-9.68,8.68S87.59,78,87.59,73.13V59.82h6.48Z"/><path class="cls-1" d="M122.08,66.56a1.8,1.8,0,0,0-1.87-1.67,1.76,1.76,0,0,0-1.83,1.67,1.74,1.74,0,0,0,1.83,1.64,7.85,7.85,0,0,1,5.92,2.61,6.32,6.32,0,0,1,1.64,4.26c0,3.75-3.37,6.74-7.56,6.74s-7.56-3-7.56-6.83h5.73a1.74,1.74,0,0,0,1.83,1.67A1.77,1.77,0,0,0,122.08,75a1.8,1.8,0,0,0-1.87-1.68c-4.19,0-7.52-3-7.52-6.74s3.33-6.77,7.52-6.77,7.56,3,7.56,6.74Z"/><path class="cls-1" d="M140,59.82v7.83h7.79V59.82h6.44v22h-6.44V73.42H140v8.39h-6.44v-22Z"/><path class="cls-1" d="M184,59.82,172.85,69.87l13.29,11.94H177L168.31,74l-1.54,1.41v6.39h-6.45v-22h6.45v7.41L175,59.82Z"/><path class="cls-1" d="M187.94,81.81l11.45-22h2.91l11.55,22H207.4l-1.5-2.87H195.85l-1.47,2.87Zm10.43-7.74h5l-2.49-4.84Z"/><line class="cls-2" x1="21.34" y1="7.08" x2="198.99" y2="7"/><line class="cls-2" x1="23.68" y1="89.06" x2="201.33" y2="88.99"/></svg>
